<svg width="845" height="163" viewBox="0 0 845 163" fill="none" xmlns="http://www.w3.org/2000/svg">
<path d="M194.92 127.152C190.141 127.152 185.875 126.085 182.12 123.952C178.365 121.819 175.421 118.789 173.288 114.864C171.155 110.939 170.088 106.245 170.088 100.784V62.896H183.272V99.888C183.272 105.349 184.637 109.403 187.368 112.048C190.099 114.608 193.896 115.888 198.76 115.888C204.136 115.888 208.445 114.096 211.688 110.512C215.016 106.843 216.68 101.595 216.68 94.768V62.896H229.864V126H216.936V116.528H214.888C213.693 119.088 211.56 121.52 208.488 123.824C205.416 126.043 200.893 127.152 194.92 127.152ZM249.353 126V62.896H262.281V72.368H264.329C265.524 69.808 267.657 67.4187 270.729 65.2C273.801 62.9813 278.366 61.872 284.425 61.872C289.204 61.872 293.428 62.9387 297.097 65.072C300.852 67.2053 303.796 70.2347 305.929 74.16C308.062 78 309.129 82.6507 309.129 88.112V126H295.945V89.136C295.945 83.6747 294.58 79.664 291.849 77.104C289.118 74.4587 285.364 73.136 280.585 73.136C275.124 73.136 270.729 74.928 267.401 78.512C264.158 82.096 262.537 87.3013 262.537 94.128V126H249.353ZM350.033 126C346.193 126 343.121 124.848 340.817 122.544C338.598 120.24 337.489 117.168 337.489 113.328V74.032H320.081V62.896H337.489V42.032H350.673V62.896H369.489V74.032H350.673V111.024C350.673 113.584 351.868 114.864 354.257 114.864H367.441V126H350.033ZM384.978 126V62.896H397.906V70.32H399.954C400.978 67.6747 402.599 65.7547 404.818 64.56C407.122 63.28 409.938 62.64 413.266 62.64H420.818V74.544H412.754C408.487 74.544 404.989 75.7387 402.258 78.128C399.527 80.432 398.162 84.016 398.162 88.88V126H384.978ZM441.774 151.6V140.08H476.974C479.363 140.08 480.558 138.8 480.558 136.24V116.784H478.51C477.742 118.491 476.547 120.155 474.926 121.776C473.39 123.312 471.299 124.592 468.654 125.616C466.009 126.64 462.681 127.152 458.67 127.152C453.891 127.152 449.625 126.085 445.87 123.952C442.115 121.819 439.171 118.789 437.038 114.864C434.905 110.939 433.838 106.288 433.838 100.912V62.896H447.022V99.888C447.022 105.349 448.387 109.403 451.118 112.048C453.849 114.608 457.646 115.888 462.51 115.888C467.886 115.888 472.195 114.096 475.438 110.512C478.766 106.928 480.43 101.723 480.43 94.896V62.896H493.614V138.928C493.614 142.768 492.462 145.84 490.158 148.144C487.939 150.448 484.867 151.6 480.942 151.6H441.774ZM537.063 126L562.663 36.4H586.983L612.455 126H598.247L592.359 104.88H557.287L551.399 126H537.063ZM560.743 92.08H588.903L575.847 44.976H573.799L560.743 92.08ZM645.783 126C641.943 126 638.871 124.848 636.567 122.544C634.348 120.24 633.239 117.168 633.239 113.328V74.032H615.831V62.896H633.239V42.032H646.423V62.896H665.239V74.032H646.423V111.024C646.423 113.584 647.618 114.864 650.007 114.864H663.191V126H645.783ZM680.728 126V36.4H693.912V126H680.728ZM733.062 127.792C728.539 127.792 724.486 127.024 720.902 125.488C717.403 123.952 714.587 121.691 712.454 118.704C710.406 115.717 709.382 112.091 709.382 107.824C709.382 103.472 710.406 99.888 712.454 97.072C714.587 94.1707 717.446 91.9947 721.03 90.544C724.699 89.0933 728.838 88.368 733.446 88.368H752.646V84.272C752.646 80.6027 751.537 77.6587 749.318 75.44C747.099 73.2213 743.686 72.112 739.078 72.112C734.555 72.112 731.099 73.1787 728.71 75.312C726.321 77.4453 724.742 80.2187 723.974 83.632L711.686 79.664C712.71 76.2507 714.331 73.1787 716.55 70.448C718.854 67.632 721.883 65.3707 725.638 63.664C729.393 61.9573 733.915 61.104 739.206 61.104C747.398 61.104 753.841 63.1947 758.534 67.376C763.227 71.5573 765.574 77.488 765.574 85.168V111.152C765.574 113.712 766.769 114.992 769.158 114.992H774.534V126H764.678C761.691 126 759.259 125.232 757.382 123.696C755.505 122.16 754.566 120.069 754.566 117.424V117.04H752.646C751.963 118.32 750.939 119.813 749.574 121.52C748.209 123.227 746.203 124.72 743.558 126C740.913 127.195 737.414 127.792 733.062 127.792ZM734.982 116.912C740.273 116.912 744.539 115.419 747.782 112.432C751.025 109.36 752.646 105.179 752.646 99.888V98.608H734.214C730.715 98.608 727.899 99.376 725.766 100.912C723.633 102.363 722.566 104.539 722.566 107.44C722.566 110.341 723.675 112.645 725.894 114.352C728.113 116.059 731.142 116.912 734.982 116.912ZM812.709 127.792C804.688 127.792 798.032 126 792.741 122.416C787.45 118.832 784.208 113.413 783.013 106.16L795.301 103.216C795.984 106.715 797.136 109.488 798.757 111.536C800.378 113.584 802.384 115.035 804.773 115.888C807.248 116.741 809.893 117.168 812.709 117.168C816.89 117.168 820.09 116.357 822.309 114.736C824.613 113.115 825.765 111.024 825.765 108.464C825.765 105.904 824.698 104.027 822.565 102.832C820.432 101.637 817.274 100.656 813.093 99.888L808.741 99.12C804.474 98.352 800.592 97.2427 797.093 95.792C793.594 94.3413 790.821 92.336 788.773 89.776C786.725 87.216 785.701 83.9307 785.701 79.92C785.701 73.9467 787.92 69.3387 792.357 66.096C796.794 62.768 802.682 61.104 810.021 61.104C817.104 61.104 822.906 62.7253 827.429 65.968C832.037 69.1253 835.024 73.4347 836.389 78.896L824.101 82.352C823.333 78.512 821.712 75.824 819.237 74.288C816.762 72.6667 813.69 71.856 810.021 71.856C806.437 71.856 803.621 72.5387 801.573 73.904C799.525 75.184 798.501 77.0187 798.501 79.408C798.501 81.968 799.482 83.8453 801.445 85.04C803.493 86.2347 806.224 87.1307 809.637 87.728L814.117 88.496C818.64 89.264 822.778 90.3307 826.533 91.696C830.288 93.0613 833.232 95.024 835.365 97.584C837.584 100.144 838.693 103.557 838.693 107.824C838.693 114.139 836.346 119.045 831.653 122.544C826.96 126.043 820.645 127.792 812.709 127.792Z" fill="#E2E8F0"/>
<path d="M42.624 127.792C31.7013 127.792 23.04 124.72 16.64 118.576C10.24 112.347 7.04 103.387 7.04 91.696V70.704C7.04 59.0133 10.24 50.096 16.64 43.952C23.04 37.7227 31.7013 34.608 42.624 34.608C53.376 34.608 61.6533 37.5947 67.456 43.568C73.344 49.5413 76.288 57.6907 76.288 68.016V68.784H62.592V67.632C62.592 61.5733 60.928 56.624 57.6 52.784C54.3573 48.944 49.3653 47.024 42.624 47.024C35.7973 47.024 30.464 49.1147 26.624 53.296C22.784 57.392 20.864 63.1093 20.864 70.448V91.952C20.864 99.2053 22.784 104.923 26.624 109.104C30.464 113.285 35.7973 115.376 42.624 115.376C49.3653 115.376 54.3573 113.456 57.6 109.616C60.928 105.691 62.592 100.741 62.592 94.768V92.592H76.288V94.384C76.288 104.709 73.344 112.859 67.456 118.832C61.6533 124.805 53.376 127.792 42.624 127.792Z" fill="#E2E8F0"/>
<path d="M123.55 124.7C139.704 124.7 152.8 111.201 152.8 94.55C152.8 77.8986 139.704 64.4 123.55 64.4C107.396 64.4 94.3 77.8986 94.3 94.55C94.3 111.201 107.396 124.7 123.55 124.7Z" stroke="#E2E8F0" stroke-width="8" stroke-linecap="round" stroke-linejoin="round"/>
<path d="M100.6 112.1L104.052 109.864C104.395 109.638 104.677 109.323 104.874 108.948C105.07 108.574 105.173 108.151 105.173 107.722L105.232 96.3517C105.237 95.8803 105.37 95.4206 105.616 95.0288L111.458 85.2334C111.634 84.944 111.862 84.6955 112.13 84.5029C112.398 84.3103 112.699 84.1776 113.016 84.1129C113.333 84.0481 113.659 84.0526 113.975 84.1261C114.29 84.1996 114.589 84.3405 114.852 84.5404L120.635 89.013C121.134 89.3843 121.741 89.552 122.346 89.4854L131.641 88.1311C132.204 88.0482 132.72 87.7452 133.086 87.2806L139.637 79.2175C140.025 78.726 140.225 78.096 140.197 77.4537L139.873 69.8" stroke="#E2E8F0" stroke-width="8" stroke-linecap="round" stroke-linejoin="round"/>
<path d="M141.197 117.5L137.916 114.266C137.612 113.967 137.235 113.75 136.822 113.637L130.289 111.96C129.715 111.805 129.219 111.449 128.894 110.958C128.57 110.466 128.439 109.875 128.527 109.295L129.226 104.444C129.295 104.036 129.468 103.652 129.728 103.327C129.988 103.003 130.328 102.748 130.714 102.588L139.951 98.7846C140.38 98.6082 140.852 98.5568 141.31 98.6365C141.767 98.7161 142.192 98.9234 142.534 99.2338L150.1 106.061" stroke="#E2E8F0" stroke-width="8" stroke-linecap="round" stroke-linejoin="round"/>
</svg>
