<svg width="180" height="270" viewBox="0 0 180 270" fill="none" xmlns="http://www.w3.org/2000/svg">
<rect x="36" y="77.5" width="122" height="31" fill="#2B547E"/>
<rect y="0.5" width="36" height="187" fill="#2B547E"/>
<rect x="122" y="0.5" width="36.25" height="108" fill="#2B547E"/>
<path d="M97.336 269.364C83 269.364 70.6267 266.633 60.216 261.172C49.976 255.711 42.1253 248.457 36.664 239.412C31.2027 230.196 28.472 219.956 28.472 208.692H63.544C63.544 217.737 66.5307 225.076 72.504 230.708C78.648 236.169 86.9253 238.9 97.336 238.9C104.333 238.9 110.307 237.62 115.256 235.06C120.376 232.329 124.301 228.66 127.032 224.052C129.763 219.273 131.128 213.812 131.128 207.668C131.128 198.452 128.141 190.943 122.168 185.14C116.195 179.167 108.003 176.18 97.592 176.18C92.472 176.18 87.9493 176.863 84.024 178.228C80.2693 179.593 76.9413 181.385 74.04 183.604L57.4 154.932L118.84 112.948L116.536 108.596H36.152V77.62H158.264V114.996L95.032 156.98L75.32 153.396C78.5627 152.372 82.0613 151.604 85.816 151.092C89.5707 150.409 93.6667 150.068 98.104 150.068C112.269 150.068 124.387 152.543 134.456 157.492C144.696 162.271 152.547 168.927 158.008 177.46C163.469 185.993 166.2 195.807 166.2 206.9V210.228C166.2 220.98 163.469 230.879 158.008 239.924C152.547 248.799 144.696 255.967 134.456 261.428C124.216 266.719 111.843 269.364 97.336 269.364Z" fill="#2B547E"/>
</svg>
